<svg width="21" height="20" viewBox="0 0 21 20" fill="none" xmlns="http://www.w3.org/2000/svg">
<path fill-rule="evenodd" clip-rule="evenodd" d="M10.5 1.875C6.01269 1.875 2.375 5.51269 2.375 10C2.375 14.4873 6.01269 18.125 10.5 18.125C14.9873 18.125 18.625 14.4873 18.625 10C18.625 5.51269 14.9873 1.875 10.5 1.875ZM11.125 7.5C11.125 7.15482 10.8452 6.875 10.5 6.875C10.1548 6.875 9.875 7.15482 9.875 7.5V9.375H8C7.65482 9.375 7.375 9.65482 7.375 10C7.375 10.3452 7.65482 10.625 8 10.625H9.875V12.5C9.875 12.8452 10.1548 13.125 10.5 13.125C10.8452 13.125 11.125 12.8452 11.125 12.5V10.625H13C13.3452 10.625 13.625 10.3452 13.625 10C13.625 9.65482 13.3452 9.375 13 9.375H11.125V7.5Z" fill="#64748B"/>
</svg>
