<svg width="20" height="20" viewBox="0 0 20 20" fill="none" xmlns="http://www.w3.org/2000/svg">
<path d="M14.1703 8.67274C14.2856 9.03526 13.9905 9.37481 13.6101 9.37481H10.7226C10.4993 9.37481 10.293 9.25569 10.1814 9.06233L8.73743 6.56156C8.54708 6.2319 8.69377 5.80645 9.06573 5.7255C9.36687 5.65997 9.67959 5.62545 10.0004 5.62545C11.9537 5.62545 13.6081 6.90561 14.1703 8.67274Z" fill="#0F172A"/>
<path d="M6.76652 7.05374C7.0231 6.77232 7.46509 6.85785 7.65552 7.18764L9.09884 9.68731C9.21049 9.88069 9.2105 10.119 9.09885 10.3123L7.65518 12.8128C7.46475 13.1427 7.02269 13.2282 6.76613 12.9467C6.05747 12.1693 5.62537 11.1353 5.62537 10.0004C5.62537 8.86537 6.05763 7.83126 6.76652 7.05374Z" fill="#0F172A"/>
<path d="M9.06516 14.2753C8.69325 14.1943 8.54659 13.7689 8.73691 13.4392L10.1814 10.9373C10.293 10.7439 10.4994 10.6248 10.7227 10.6248H13.6105C13.9909 10.6248 14.2859 10.9642 14.1707 11.3267C13.609 13.0946 11.9543 14.3754 10.0004 14.3754C9.67939 14.3754 9.36648 14.3409 9.06516 14.2753Z" fill="#0F172A"/>
<path fill-rule="evenodd" clip-rule="evenodd" d="M17.501 10.6248C17.8462 10.6248 18.126 10.345 18.126 9.99981C18.126 9.65463 17.8462 9.37481 17.501 9.37481H16.8479C16.8131 8.98802 16.7462 8.61047 16.65 8.24483L17.2623 8.02197C17.5866 7.90391 17.7539 7.54526 17.6358 7.2209C17.5178 6.89654 17.1591 6.72929 16.8347 6.84735L16.2224 7.07024C16.0583 6.72239 15.8659 6.39051 15.6481 6.0776L16.1479 5.6582C16.4124 5.43632 16.4469 5.0421 16.225 4.77768C16.0031 4.51326 15.6089 4.47877 15.3445 4.70064L14.8442 5.1204C14.5728 4.851 14.2791 4.60409 13.966 4.38269L14.2922 3.81776C14.4648 3.51883 14.3623 3.13659 14.0634 2.964C13.7645 2.79141 13.3822 2.89383 13.2096 3.19276L12.884 3.75671C12.5391 3.59715 12.1787 3.46533 11.8057 3.36413L11.9188 2.72289C11.9787 2.38296 11.7517 2.0588 11.4118 1.99886C11.0719 1.93892 10.7477 2.1659 10.6878 2.50583L10.5745 3.14839C10.3854 3.13277 10.1941 3.12481 10.001 3.12481C9.80784 3.12481 9.61653 3.13279 9.42735 3.14843L9.31405 2.50587C9.25411 2.16593 8.92995 1.93895 8.59001 1.99889C8.25008 2.05883 8.0231 2.38299 8.08304 2.72293L8.19613 3.36432C7.82328 3.46552 7.46291 3.59731 7.11797 3.75685L6.79218 3.19261C6.61958 2.89369 6.23734 2.79128 5.93841 2.96388C5.63948 3.13648 5.53708 3.51873 5.70968 3.81766L6.03598 4.38277C5.72305 4.60405 5.42939 4.85087 5.15804 5.12021L4.6574 4.70012C4.39298 4.47825 3.99876 4.51274 3.77688 4.77716C3.55501 5.04158 3.5895 5.4358 3.85392 5.65768L4.3541 6.07738C4.13627 6.3904 3.94377 6.7224 3.77961 7.07042L3.16708 6.84748C2.84272 6.72942 2.48407 6.89666 2.36601 7.22103C2.24795 7.54539 2.41519 7.90404 2.73955 8.0221L3.352 8.24501C3.25576 8.61057 3.18887 8.98806 3.15401 9.37481H2.50098C2.1558 9.37481 1.87598 9.65463 1.87598 9.99981C1.87598 10.345 2.1558 10.6248 2.50098 10.6248H3.154C3.18886 11.0116 3.25573 11.3891 3.35197 11.7547L2.73935 11.9777C2.41499 12.0957 2.24774 12.4544 2.3658 12.7787C2.48386 13.1031 2.84251 13.2703 3.16687 13.1523L3.77955 12.9293C3.94374 13.2774 4.13628 13.6095 4.3542 13.9226L3.85379 14.3425C3.58937 14.5643 3.55488 14.9586 3.77676 15.223C3.99863 15.4874 4.39286 15.5219 4.65728 15.3L5.1582 14.8797C5.42959 15.149 5.72332 15.3959 6.03637 15.6172L5.70963 16.1831C5.53704 16.4821 5.63946 16.8643 5.9384 17.0369C6.23733 17.2095 6.61957 17.1071 6.79216 16.8081L7.11838 16.2431C7.4632 16.4026 7.82346 16.5343 8.19631 16.6355L8.08303 17.2779C8.02309 17.6179 8.25007 17.942 8.59001 18.002C8.92994 18.0619 9.2541 17.8349 9.31404 17.495L9.42756 16.8512C9.61663 16.8668 9.80787 16.8748 10.001 16.8748C10.194 16.8748 10.3852 16.8669 10.5742 16.8512L10.6878 17.495C10.7477 17.835 11.0719 18.062 11.4118 18.002C11.7517 17.9421 11.9787 17.6179 11.9188 17.278L11.8055 16.6355C12.1784 16.5344 12.5387 16.4026 12.8835 16.2431L13.2097 16.808C13.3823 17.1069 13.7645 17.2094 14.0634 17.0368C14.3624 16.8642 14.4648 16.4819 14.2922 16.183L13.9655 15.6172C14.2787 15.3958 14.5725 15.1489 14.844 14.8794L15.3446 15.2995C15.609 15.5214 16.0032 15.4869 16.2251 15.2225C16.447 14.958 16.4125 14.5638 16.1481 14.3419L15.6479 13.9223C15.8658 13.6093 16.0582 13.2774 16.2223 12.9294L16.8349 13.1524C17.1593 13.2705 17.518 13.1032 17.636 12.7789C17.7541 12.4545 17.5868 12.0958 17.2625 11.9778L16.6499 11.7548C16.7462 11.3892 16.8131 11.0116 16.8479 10.6248H17.501ZM15.2866 8.07595C15.2815 8.06209 15.277 8.04817 15.273 8.03421C15.0498 7.43584 14.7277 6.88569 14.3265 6.40365C14.3208 6.39746 14.3153 6.39112 14.3099 6.38465C14.3045 6.37831 14.2994 6.37189 14.2944 6.36541C13.8858 5.88328 13.3975 5.47087 12.8498 5.14855C12.8376 5.1425 12.8254 5.136 12.8134 5.12906C12.801 5.12193 12.789 5.11445 12.7774 5.10662C12.2405 4.80136 11.6485 4.58189 11.02 4.46688C11.0059 4.46537 10.9918 4.46337 10.9777 4.46088C10.964 4.45846 10.9504 4.45561 10.9371 4.45236C10.6327 4.40135 10.3199 4.37481 10.001 4.37481C9.68229 4.37481 9.36997 4.40126 9.06602 4.45206C9.05226 4.45546 9.0383 4.45841 9.02413 4.46091C9.00949 4.46349 8.99487 4.46554 8.9803 4.46707C8.33785 4.58475 7.73407 4.81151 7.18827 5.12733C6.62334 5.45423 6.12074 5.87629 5.70229 6.37153C5.69892 6.37576 5.69549 6.37996 5.69199 6.38413C5.69022 6.38624 5.68843 6.38834 5.68664 6.39043C5.68476 6.39261 5.68286 6.39478 5.68096 6.39693C5.27701 6.88074 4.95293 7.43333 4.72877 8.03451C4.72477 8.04841 4.72026 8.06227 4.71524 8.07608C4.71022 8.08988 4.70476 8.1034 4.69888 8.11663C4.48976 8.70547 4.37598 9.33939 4.37598 9.99981C4.37598 10.6618 4.49032 11.297 4.70034 11.8869C4.70558 11.8989 4.71049 11.9112 4.71504 11.9237C4.71957 11.9361 4.72369 11.9487 4.72739 11.9612C5.18368 13.1875 6.05548 14.2117 7.17166 14.8625C7.17481 14.8642 7.17796 14.8659 7.1811 14.8677C7.18354 14.8691 7.18597 14.8704 7.1884 14.8718C7.19424 14.8752 7.20002 14.8787 7.20571 14.8822C7.75395 15.1968 8.36021 15.4216 9.00449 15.5368C9.01103 15.5378 9.01758 15.5388 9.02413 15.54C9.03024 15.541 9.0363 15.5422 9.04234 15.5434C9.35388 15.5969 9.67417 15.6248 10.001 15.6248C10.3278 15.6248 10.6482 15.5969 10.9597 15.5434C10.9657 15.5422 10.9717 15.5411 10.9777 15.54C10.9842 15.5389 10.9906 15.5378 10.9971 15.5369C11.6399 15.422 12.245 15.1979 12.7923 14.8845C12.7992 14.8801 12.8063 14.8759 12.8134 14.8717C12.8203 14.8678 12.8272 14.8639 12.8342 14.8602C13.392 14.5344 13.8887 14.1152 14.3028 13.6242L14.31 13.6155L14.3177 13.6065C14.7236 13.1212 15.0492 12.5663 15.2741 11.9625C15.2779 11.9495 15.2821 11.9366 15.2868 11.9238C15.2915 11.9109 15.2965 11.8983 15.302 11.8859C15.5118 11.2963 15.626 10.6614 15.626 9.99981C15.626 9.33935 15.5121 8.70548 15.303 8.11673C15.2971 8.10343 15.2916 8.08983 15.2866 8.07595Z" fill="#0F172A"/>
</svg>
