<svg width="16" height="16" viewBox="0 0 16 16" fill="none" xmlns="http://www.w3.org/2000/svg">
<path fill-rule="evenodd" clip-rule="evenodd" d="M7.99974 1.59961C8.33111 1.59961 8.59974 1.86824 8.59974 2.19961V2.4063C9.78448 2.43273 10.9502 2.53724 12.092 2.71496C12.7134 2.81168 13.3277 2.93009 13.9341 3.06937C14.257 3.14356 14.4587 3.46552 14.3845 3.78848C14.3103 4.11144 13.9884 4.3131 13.6654 4.23891C13.3732 4.17178 13.079 4.10972 12.7829 4.05285L14.1448 10.0894C14.2049 10.3557 14.0777 10.629 13.8352 10.7544C13.2848 11.0391 12.6602 11.1996 11.9997 11.1996C11.3393 11.1996 10.7147 11.0391 10.1643 10.7544C9.92181 10.629 9.79456 10.3557 9.85464 10.0894L11.2714 3.80997C10.3943 3.6963 9.50301 3.6277 8.59974 3.60661V12.8107C9.63536 12.8489 10.6463 12.9856 11.6234 13.2118C11.9462 13.2866 12.1473 13.6089 12.0725 13.9317C11.9978 14.2545 11.6755 14.4556 11.3526 14.3809C10.2759 14.1315 9.1536 13.9996 7.99974 13.9996C6.84589 13.9996 5.7236 14.1315 4.64685 14.3809C4.32402 14.4556 4.00171 14.2545 3.92696 13.9317C3.8522 13.6089 4.0533 13.2866 4.37613 13.2118C5.35317 12.9856 6.36413 12.8489 7.39974 12.8107V3.60661C6.49648 3.6277 5.60514 3.6963 4.72812 3.80997L6.14485 10.0894C6.20492 10.3557 6.07767 10.629 5.8352 10.7544C5.28483 11.0391 4.66015 11.1996 3.99974 11.1996C3.33933 11.1996 2.71466 11.0391 2.16428 10.7544C1.92181 10.629 1.79456 10.3557 1.85464 10.0894L3.21657 4.05285C2.92052 4.10972 2.62633 4.17178 2.33407 4.23891C2.01112 4.3131 1.68916 4.11144 1.61497 3.78848C1.54078 3.46552 1.74245 3.14356 2.06541 3.06938C2.67175 2.93009 3.28604 2.81168 3.90746 2.71496C5.04925 2.53724 6.21501 2.43273 7.39974 2.4063V2.19961C7.39974 1.86824 7.66837 1.59961 7.99974 1.59961ZM3.99974 6.03408L3.13568 9.86392C3.4074 9.95196 3.69764 9.99961 3.99974 9.99961C4.30185 9.99961 4.59208 9.95196 4.8638 9.86392L3.99974 6.03408ZM11.9997 6.03409L11.1357 9.86392C11.4074 9.95196 11.6976 9.99961 11.9997 9.99961C12.3018 9.99961 12.5921 9.95196 12.8638 9.86392L11.9997 6.03409Z" fill="#0F172A"/>
</svg>
